<svg width="1994" height="1274" viewBox="0 0 1994 1274" fill="none" xmlns="http://www.w3.org/2000/svg" xmlns:xlink="http://www.w3.org/1999/xlink">
<path d="M457.667,890.352L378.018,974.684L546.685,1133.982L626.333,1049.648L457.667,890.352ZM1300.6,767.32L1360.192,667.798L1360.192,667.798L1300.6,767.32ZM1934.896,110.621L1901.518,-0.473L1679.33,66.285L1712.708,177.379L1934.896,110.621ZM626.333,1049.648C683.54,989.078 787.262,906.118 905.312,858.796C1022.106,811.98 1137.86,805.078 1241.006,866.842L1360.192,667.798C1173.508,556.01 976.014,580.51 818.992,643.454C663.226,705.892 532.564,811.05 457.667,890.352L626.333,1049.648ZM1241.006,866.842C1443.508,988.1 1685.704,1015.474 1849.588,861.376C2008.676,711.79 2034.792,443.096 1934.896,110.621L1712.708,177.379C1804.992,484.52 1750.65,635.956 1690.664,692.358C1635.474,744.252 1519.978,763.478 1360.192,667.798L1241.006,866.842Z" fill="#FFFFFF"/>
<path d="M3.516,1265.164L0.769,1268.072L6.585,1273.564L9.332,1270.656L3.516,1265.164ZM765.024,1065.23L767.078,1061.798L767.078,1061.798L765.024,1065.23ZM1292.058,440.759L1290.906,436.928L1283.244,439.23L1284.396,443.061L1292.058,440.759ZM9.332,1270.656C75.079,1201.042 191.806,1107.368 328.064,1052.748C464.278,998.146 619.494,982.748 762.968,1068.662L767.078,1061.798C620.722,974.16 462.69,990.164 325.088,1045.322C187.529,1100.464 69.873,1194.904 3.516,1265.164L9.332,1270.656ZM762.968,1068.662C944.848,1177.572 1125.878,1182.45 1237.29,1077.692C1348.536,973.09 1388.278,761.004 1292.058,440.759L1284.396,443.061C1380.354,762.432 1339.638,970.474 1231.81,1071.864C1124.146,1173.096 947.486,1169.826 767.078,1061.798L762.968,1068.662Z" transform="rotate(-78.697 674.424 854.91)" fill="#0D83F2"/>
</svg>
