<svg width="2134" height="1526" viewBox="0 0 2134 1526" fill="none" xmlns="http://www.w3.org/2000/svg" xmlns:xlink="http://www.w3.org/1999/xlink">
<path d="M92.642,997.464L89.895,1000.372L95.711,1005.866L98.458,1002.958L92.642,997.464ZM751.966,824.83L754.022,821.4L754.022,821.4L751.966,824.83ZM1208.526,284.321L1207.374,280.49L1199.714,282.792L1200.864,286.623L1208.526,284.321ZM98.458,1002.958C155.308,942.764 256.249,861.758 374.066,814.53C491.84,767.322 625.956,754.038 749.912,828.262L754.022,821.4C627.186,745.45 490.25,759.34 371.09,807.106C251.972,854.854 150.101,936.624 92.642,997.464L98.458,1002.958ZM749.912,828.262C907.392,922.562 1064.332,926.892 1160.988,836.008C1257.48,745.278 1291.804,561.488 1208.526,284.321L1200.864,286.623C1283.88,562.916 1248.582,742.664 1155.508,830.178C1062.6,917.538 910.03,914.818 754.022,821.4L749.912,828.262Z" transform="rotate(-78.697 673.571 642.841)" fill="#0D83F2"/>
<path d="M596.429,1280.679L516.78,1365.011L685.447,1524.309L765.095,1439.975L596.429,1280.679ZM1439.362,1157.647L1498.954,1058.125L1498.954,1058.125L1439.362,1157.647ZM2073.658,500.948L2040.28,389.854L1818.092,456.613L1851.47,567.706L2073.658,500.948ZM765.095,1439.975C822.302,1379.405 926.024,1296.445 1044.074,1249.123C1160.868,1202.307 1276.622,1195.405 1379.768,1257.169L1498.954,1058.125C1312.27,946.337 1114.776,970.837 957.754,1033.781C801.988,1096.219 671.326,1201.377 596.429,1280.679L765.095,1439.975ZM1379.768,1257.169C1582.27,1378.427 1824.466,1405.801 1988.35,1251.703C2147.438,1102.117 2173.554,833.423 2073.658,500.948L1851.47,567.706C1943.754,874.847 1889.412,1026.283 1829.426,1082.685C1774.236,1134.579 1658.74,1153.805 1498.954,1058.125L1379.768,1257.169Z" transform="rotate(-357.525 1348.762 947.327)" fill="#FFFFFF"/>
</svg>
