<svg width="4410" height="2380" viewBox="0 0 4410 2380" fill="none" xmlns="http://www.w3.org/2000/svg" xmlns:xlink="http://www.w3.org/1999/xlink">
<rect  x="646" y="152" width="2880" height="1882" fill="#F5F5F5"/>
<path d="M561.667,890.352L482.018,974.684L650.685,1133.982L730.333,1049.648L561.667,890.352ZM1404.6,767.32L1464.192,667.798L1464.192,667.798L1404.6,767.32ZM2038.896,110.621L2005.518,-0.473L1783.33,66.285L1816.708,177.379L2038.896,110.621ZM730.333,1049.648C787.54,989.078 891.262,906.118 1009.312,858.796C1126.106,811.98 1241.86,805.078 1345.006,866.842L1464.192,667.798C1277.508,556.01 1080.014,580.51 922.992,643.454C767.226,705.892 636.564,811.05 561.667,890.352L730.333,1049.648ZM1345.006,866.842C1547.508,988.1 1789.704,1015.474 1953.588,861.376C2112.676,711.79 2138.792,443.096 2038.896,110.621L1816.708,177.379C1908.992,484.52 1854.65,635.956 1794.664,692.358C1739.474,744.252 1623.978,763.478 1464.192,667.798L1345.006,866.842Z" fill="#FFFFFF"/>
<path d="M107.516,1265.164L104.769,1268.072L110.585,1273.564L113.332,1270.656L107.516,1265.164ZM869.024,1065.23L871.078,1061.798L871.078,1061.798L869.024,1065.23ZM1396.058,440.759L1394.906,436.928L1387.244,439.23L1388.396,443.061L1396.058,440.759ZM113.332,1270.656C179.079,1201.042 295.806,1107.368 432.064,1052.748C568.278,998.146 723.494,982.748 866.968,1068.662L871.078,1061.798C724.722,974.16 566.69,990.164 429.088,1045.322C291.529,1100.464 173.873,1194.904 107.516,1265.164L113.332,1270.656ZM866.968,1068.662C1048.848,1177.572 1229.878,1182.45 1341.29,1077.692C1452.536,973.09 1492.278,761.004 1396.058,440.759L1388.396,443.061C1484.354,762.432 1443.638,970.474 1335.81,1071.864C1228.146,1173.096 1051.486,1169.826 871.078,1061.798L866.968,1068.662Z" transform="rotate(-78.697 778.424 854.91)" fill="#0D83F2"/>
<path d="M2368.642,1851.464L2365.895,1854.372L2371.711,1859.866L2374.458,1856.958L2368.642,1851.464ZM3027.966,1678.83L3030.022,1675.4L3030.022,1675.4L3027.966,1678.83ZM3484.526,1138.321L3483.374,1134.49L3475.714,1136.792L3476.864,1140.623L3484.526,1138.321ZM2374.458,1856.958C2431.308,1796.764 2532.249,1715.758 2650.066,1668.53C2767.84,1621.322 2901.956,1608.038 3025.912,1682.262L3030.022,1675.4C2903.186,1599.45 2766.25,1613.34 2647.09,1661.106C2527.972,1708.854 2426.101,1790.624 2368.642,1851.464L2374.458,1856.958ZM3025.912,1682.262C3183.392,1776.562 3340.332,1780.892 3436.988,1690.008C3533.48,1599.278 3567.804,1415.488 3484.526,1138.321L3476.864,1140.623C3559.88,1416.916 3524.582,1596.664 3431.508,1684.178C3338.6,1771.538 3186.03,1768.818 3030.022,1675.4L3025.912,1682.262Z" transform="rotate(-78.697 2949.571 1496.841)" fill="#0D83F2"/>
<path d="M2872.429,2134.679L2792.78,2219.011L2961.447,2378.309L3041.095,2293.975L2872.429,2134.679ZM3715.362,2011.647L3774.954,1912.125L3774.954,1912.125L3715.362,2011.647ZM4349.658,1354.948L4316.28,1243.854L4094.092,1310.613L4127.47,1421.706L4349.658,1354.948ZM3041.095,2293.975C3098.302,2233.405 3202.024,2150.445 3320.074,2103.123C3436.868,2056.307 3552.622,2049.405 3655.768,2111.169L3774.954,1912.125C3588.27,1800.337 3390.776,1824.837 3233.754,1887.781C3077.988,1950.219 2947.326,2055.377 2872.429,2134.679L3041.095,2293.975ZM3655.768,2111.169C3858.27,2232.427 4100.466,2259.801 4264.35,2105.703C4423.438,1956.117 4449.554,1687.423 4349.658,1354.948L4127.47,1421.706C4219.754,1728.847 4165.412,1880.283 4105.426,1936.685C4050.236,1988.579 3934.74,2007.805 3774.954,1912.125L3655.768,2111.169Z" transform="rotate(-357.525 3624.762 1801.327)" fill="#FFFFFF"/>
</svg>
