<svg width="24" height="24" viewBox="0 0 24 24" fill="none" xmlns="http://www.w3.org/2000/svg" xmlns:xlink="http://www.w3.org/1999/xlink">
<path d="M14.817,11.99L23.409,3.418C23.785,3.041 23.996,2.531 23.996,1.999C23.996,1.467 23.785,0.956 23.409,0.58C23.033,0.204 22.522,-0.008 21.99,-0.008C21.458,-0.008 20.948,0.204 20.572,0.58L12,9.173L3.428,0.58C3.052,0.204 2.542,-0.008 2.01,-0.008C1.477,-0.008 0.967,0.204 0.591,0.58C0.215,0.956 0.003,1.467 0.003,1.999C0.003,2.531 0.215,3.041 0.591,3.418L9.183,11.99L0.591,20.563C0.404,20.749 0.255,20.97 0.154,21.214C0.052,21.457 0,21.718 0,21.982C0,22.246 0.052,22.507 0.154,22.751C0.255,22.994 0.404,23.215 0.591,23.401C0.777,23.588 0.998,23.737 1.241,23.839C1.485,23.94 1.746,23.992 2.01,23.992C2.273,23.992 2.534,23.94 2.778,23.839C3.021,23.737 3.242,23.588 3.428,23.401L12,14.808L20.572,23.401C20.757,23.588 20.978,23.737 21.222,23.839C21.465,23.94 21.726,23.992 21.99,23.992C22.254,23.992 22.515,23.94 22.759,23.839C23.002,23.737 23.223,23.588 23.409,23.401C23.596,23.215 23.745,22.994 23.846,22.751C23.948,22.507 24,22.246 24,21.982C24,21.718 23.948,21.457 23.846,21.214C23.745,20.97 23.596,20.749 23.409,20.563L14.817,11.99Z" transform="rotate(-90 12 11.992)" fill="#FFFFFF"/>
</svg>
